<svg xmlns="http://www.w3.org/2000/svg" viewBox="0 0 48 48"><defs><style>.a,.b{fill:#1b344b;}.a{fill-rule:evenodd;}</style></defs><path class="a" d="M5.16,13.05,14.3,4.33,28.12,18.82,19,27.54ZM12.23,2.16a3,3,0,0,1,4.23.1l13.83,14.5a3,3,0,0,1-.1,4.23L21.05,29.7a3,3,0,0,1-4.23-.09L3,15.11a3,3,0,0,1,.1-4.23Z"/><path class="a" d="M19.08,27.48a1.48,1.48,0,0,0,.68,2l0,0c.4.19,1,.43,1.62.68l.36.14c.79.33,1.7.7,2.6,1.11a21.76,21.76,0,0,1,2.48,1.31,6.21,6.21,0,0,1,1.37,1.13,30.47,30.47,0,0,0,5,8,22.64,22.64,0,0,0,4.52,3.7l.19.13a11.73,11.73,0,0,0,3.75,1.89,4.33,4.33,0,0,0,2.2-.09,5.27,5.27,0,0,0,2-1.26,4.61,4.61,0,0,0,1.22-1.93,4.43,4.43,0,0,0,0-2.11,13.22,13.22,0,0,0-1.72-3.69,22.13,22.13,0,0,0-3.73-4.82A38.58,38.58,0,0,0,34,28.24,3.92,3.92,0,0,1,32.81,27a14.11,14.11,0,0,1-1.19-2.4,40.29,40.29,0,0,1-1.47-4.68,1.49,1.49,0,1,0-2.89.72,37.83,37.83,0,0,0,1.59,5.08,16,16,0,0,0,1.44,2.9,6.92,6.92,0,0,0,2.18,2.26h0a35.64,35.64,0,0,1,7.16,5A18.88,18.88,0,0,1,42.86,40a10.2,10.2,0,0,1,1.36,2.77,1.38,1.38,0,0,1,0,.64,1.59,1.59,0,0,1-.42.6,2.51,2.51,0,0,1-.87.58,1.31,1.31,0,0,1-.68,0,9.15,9.15,0,0,1-2.7-1.45l-.14-.09a19.39,19.39,0,0,1-4-3.27,27.15,27.15,0,0,1-4.51-7.38l-.15-.26a8.53,8.53,0,0,0-2.28-2,25,25,0,0,0-2.84-1.51c-1-.44-1.92-.84-2.73-1.16l-.37-.15q-1-.39-1.44-.6a1.48,1.48,0,0,0-2,.68Z"/><path class="b" d="M38.79,41.66a1.58,1.58,0,1,0,0-2.23h0A1.59,1.59,0,0,0,38.79,41.66Z"/><path class="a" d="M8.13,3.25a.49.49,0,0,1,.69,0h0l.8.84a1.5,1.5,0,1,0,2.22-2l0-.06L11,1.18a3.5,3.5,0,0,0-4.94-.11L1.82,5.14a3.47,3.47,0,0,0-.13,4.92h0l.8.84A1.5,1.5,0,0,0,4.67,8.84L3.87,8a.5.5,0,0,1,0-.71h0Z"/><path class="b" d="M7.09,42.12a1.53,1.53,0,0,0-1.1.7.87.87,0,0,1-.67.29c-.69,0-1.09-.6-1.09-2.22,0-1.44.37-2.13,1.11-2.13A.86.86,0,0,1,6,39c.37.33.72.78,1.22.78H8a.76.76,0,0,0,.83-.68.87.87,0,0,0,0-.32,3.49,3.49,0,0,0-3.52-1.94,3.89,3.89,0,0,0-4.09,3.7,2.79,2.79,0,0,0,0,.5,3.7,3.7,0,0,0,3.31,4,4,4,0,0,0,.69,0c2,0,3-.81,3.51-1.8a.82.82,0,0,0-.47-1.06A.63.63,0,0,0,8,42.12Z"/><path class="b" d="M12.2,44.85a1,1,0,0,0,1-1V35a1,1,0,0,0-1-1h-.93a1,1,0,0,0-1,1v8.9a1,1,0,0,0,1,1Z"/><path class="b" d="M15.89,37a1,1,0,0,0-1,1v6.88c0,.69-.2.88-.78.88h0a.19.19,0,0,0-.18.19L14,46v1.1a.83.83,0,0,0,.82.85h0c2.61,0,3-1.23,3-3.58V38a1,1,0,0,0-1-1Zm.91-1a1,1,0,0,0,1-1h0a1,1,0,0,0-1-1h-.92a1,1,0,0,0-1,1h0a1,1,0,0,0,1,1Z"/></svg>